<?xml version="1.0" encoding="utf-8"?>
<!-- Generator: Adobe Illustrator 17.0.2, SVG Export Plug-In . SVG Version: 6.00 Build 0)  -->
<!DOCTYPE svg PUBLIC "-//W3C//DTD SVG 1.1//EN" "http://www.w3.org/Graphics/SVG/1.1/DTD/svg11.dtd">
<svg version="1.1" id="Layer_1" xmlns="http://www.w3.org/2000/svg" xmlns:xlink="http://www.w3.org/1999/xlink" x="0px" y="0px"
	 width="112.322px" height="260px" viewBox="0 0 112.322 260" enable-background="new 0 0 112.322 260" xml:space="preserve">
<rect x="0" y="0.001" fill="#CBD6E9" width="112.322" height="259.634"/>
<g>
	<defs>
		<rect id="SVGID_1_" x="0" width="112.322" height="259.635"/>
	</defs>
	<clipPath id="SVGID_2_">
		<use xlink:href="#SVGID_1_"  overflow="visible"/>
	</clipPath>
	<path clip-path="url(#SVGID_2_)" fill="#F6F3E5" d="M87.382,120.032c2.138,1.601,4.631,2.575,7.506,2.857l4.749-2.103l1.591,1.381
		c0.926,2.638,1.473,5.683,1.591,9.105l0.569,7.095l-0.569,2.104l0.569,5.62l-0.569,2.103l-1.045,23.263l-0.546,2.136l-1.591,20.407
		l0.548,22.54l0.569,5.588l-0.569,2.136l-0.548,10.58l0.548,2.857c-0.5,2.575-1.402,5.148-2.638,7.723l-14.962,1.382l-7.934,2.103
		l-8.549-0.722c-2.47-0.314-5.13-1.035-8.003-2.135c-2.423,0.189-4.893,0.691-7.458,1.475l-2.09,1.382l-7.506-2.103l-5.842,0.721
		l-7.458-2.103l-13.846,2.103l-2.161-1.475l-1.045-10.485l1.614-18.398l-0.569-7.723l0.569-2.763l-0.569-9.92l-0.476-2.763
		l0.476-7.096l-0.476-5.588l0.476-2.135V152.43l0.569-7.723l-0.569-2.856l0.569-9.105l-1.045-5.62l2.09-2.104l13.846-3.61
		c2.09,0.251,4.394,0.753,6.959,1.475l5.273-0.722l1.614,1.382l1.591,2.103L40,151.05l0.546,2.763L40,156.669l1.591,16.922
		l-1.045,10.548l0.499,5.62l-0.499,2.135l1.045,6.97l0.57,2.135l-1.117,0.722l1.117,4.238l3.182-1.381l15.462-0.754l5.296,0.754
		l1.591-0.754h1.591l2.659-7.063v-11.962l-1.045-2.103l1.045-4.898v-2.103l0.546-5.62l-0.546-3.579h-0.498l0.498-0.658l-0.498-6.342
		l0.498-2.104L70.33,129.89c0.048-3.297,1.117-6.123,3.206-8.477l4.798,1.475l2.161-1.475c1.211,0.376,2.613,0.628,4.252,0.753
		l1.044-0.753L87.382,120.032z M22.948,125.651c0.617,1.225,1.496,2.198,2.637,2.857l1.116-2.857H22.948z M74.082,125.651
		l-0.546,6.342l2.162-2.103l1.59-3.485L74.082,125.651z M86.337,127.127l0.57,0.659l1.591-1.382l-1.591-0.754L86.337,127.127z
		 M37.364,126.405c0.119,0.471,0.476,0.942,1.045,1.382C38.314,127.159,37.958,126.688,37.364,126.405 M99.139,126.405l-0.545,2.103
		h1.044v-2.103H99.139z M14.944,127.127l-1.045,3.484l1.615,0.659l1.591-3.484L14.944,127.127z M92.75,131.271l-1.044,2.104
		C92.346,132.967,92.702,132.244,92.75,131.271 M78.334,134.128l-0.476,2.103l1.045-0.722v-1.381H78.334z M83.131,134.85
		c0.095,0.628,0.451,1.067,1.045,1.381C84.129,135.635,83.796,135.164,83.131,134.85 M99.637,137.613l-0.499,2.857l1.046-0.754
		v-2.103H99.637z M85.292,139.716l-0.545,2.136l1.044,1.474l1.117-2.856L85.292,139.716z M77.288,142.573
		c0.334,1.036,0.855,2.009,1.615,2.857C78.761,144.206,78.215,143.264,77.288,142.573 M98.593,142.573l-1.615,4.239
		c0.427,0.125,0.783,0.596,1.045,1.381l-1.045,4.238l1.615,1.382c0.688-1.664,1.044-3.548,1.044-5.62l0.548-4.867L98.593,142.573z
		 M79.948,148.193c0.118,1.161,0.475,2.355,1.021,3.579C80.97,150.548,80.637,149.354,79.948,148.193 M14.944,155.289l-0.475,4.206
		c0,0.816,0.332,1.256,1.045,1.382l1.044-2.103L14.944,155.289z M74.082,155.917c0.428,1.474,1.141,2.668,2.161,3.578
		C75.792,158.145,75.056,156.952,74.082,155.917 M98.593,158.02l-0.57,2.135h1.116L98.593,158.02z M29.906,160.877
		c0.38,0.816,0.903,1.256,1.591,1.381L29.906,160.877z M74.082,165.115l1.045,8.477l2.161-0.754L74.082,165.115z M14.469,167.218
		l1.045,1.382l0.546-2.763h-1.117L14.469,167.218z M21.902,165.837l-0.545,2.135l1.045-0.754L21.902,165.837z M37.364,167.218
		c0.048,1.35,0.38,2.764,1.045,4.238C38.409,170.169,38.053,168.756,37.364,167.218 M14.469,171.456l0.475,2.764l-1.045,10.58
		l0.57,1.475l1.591-2.135l2.089-7.063C16.891,175.475,15.657,173.623,14.469,171.456 M98.023,171.456l-1.591,2.764l1.591,6.341
		l0.57-6.969v-2.136H98.023z M36.794,177.798c0.096,0.629,0.452,1.099,1.046,1.382C37.744,178.709,37.412,178.238,36.794,177.798
		 M81.54,182.696l0.546,2.103v-2.103H81.54z M94.341,183.418c-1.021,2.197-1.734,4.771-2.162,7.723l2.162-1.382l3.206-4.96
		L94.341,183.418z M37.364,184.799l-0.57,2.103l1.046,1.476v-2.858L37.364,184.799z M18.697,186.902l-4.228,4.239l0.475,21.882
		c0.19,1.977,0.713,3.61,1.614,4.897l1.094-2.135c-0.452-1.35-0.832-2.952-1.094-4.867l-1.044-6.341l1.044-2.135
		c0.69-2.198,1.07-4.772,1.094-7.724L18.697,186.902z M96.431,191.141l-1.045,2.857c0.048,2.26,0.237,4.834,0.546,7.723
		c0.617-2.512,0.949-5.086,1.045-7.723L96.431,191.141z M31.996,193.276l1.591,2.826C33.445,195.002,32.923,194.06,31.996,193.276
		 M29.906,196.761c0.238,1.601,0.76,3.014,1.591,4.238C31.237,199.586,30.691,198.174,29.906,196.761 M74.651,198.236
		c0.096,1.287,0.428,2.449,1.046,3.485C75.555,200.56,75.199,199.397,74.651,198.236 M94.341,203.102h1.045l-0.499-1.381
		L94.341,203.102z M24.562,205.959c0.024,0.973,0.38,1.915,1.022,2.857C25.585,207.749,25.252,206.807,24.562,205.959
		 M96.431,206.681c-1.021,1.413-1.71,3.045-2.09,4.897C95.458,210.292,96.146,208.659,96.431,206.681 M56.008,207.341
		c-0.926,2.386-1.472,4.741-1.614,7.064l4.251-6.343L56.008,207.341z M51.685,208.062v1.382l1.117-0.628L51.685,208.062z
		 M45.344,209.444l-0.546,2.135l0.546,1.445l2.66-3.579H45.344z M75.127,209.444c0.19,1.099,0.57,2.073,1.116,2.857
		C76.196,211.266,75.84,210.292,75.127,209.444 M35.75,211.578v-1.381h-0.546L35.75,211.578z M96.431,213.023l-4.726,7.754
		l1.044,1.349c0.5-0.595,1.211-1.067,2.138-1.349l-0.546,4.866c1.163-0.628,2.232-1.538,3.206-2.763
		C97.547,219.741,97.167,216.477,96.431,213.023 M71.944,213.683l-0.498,2.103l1.591,1.381l0.498-3.484H71.944z M65.057,215.786
		v-1.381h-0.569L65.057,215.786z M50.641,220.024v-1.381h-0.546L50.641,220.024z M61.851,218.643v1.381l1.045-0.721L61.851,218.643z
		 M57.599,219.302l-0.546,2.824l1.046-0.721v-2.103H57.599z M69.285,219.302l-1.045,3.578l2.09-1.475L69.285,219.302z
		 M58.644,223.51l0.546,2.134l0.499-2.134H58.644z M65.532,227.12l1.117,0.628v-2.104h-0.546L65.532,227.12z M17.652,227.747h0.499
		v-1.382h-0.499V227.747z M53.277,227.747h1.117v-1.382h-0.546L53.277,227.747z M54.892,230.605l-0.499,2.103l1.045-0.722v-1.381
		H54.892z M94.341,231.326v1.382l1.045-0.722L94.341,231.326z M44.798,233.461l-1.045,2.764
		C44.395,235.407,44.751,234.497,44.798,233.461 M29.906,236.224l-0.545,2.103h1.044v-2.103H29.906z M90.589,237.699l0.545,3.485
		l0.571-2.857L90.589,237.699z M95.933,237.699l-1.591,3.485C95.22,240.336,95.767,239.143,95.933,237.699 M16.061,239.081
		l-2.708,3.484h2.162l2.138-0.753L16.061,239.081z M20.786,239.081c0.19,1.035,0.737,1.946,1.615,2.731L20.786,239.081z
		 M25.585,240.431v-1.349h-0.476L25.585,240.431z M36.248,240.431v-1.349H35.75L36.248,240.431z M54.892,239.708l-3.207,3.579
		l4.323-0.722L54.892,239.708z M31.498,241.184l1.615,2.103C32.781,242.314,32.258,241.624,31.498,241.184 M65.057,241.184
		l-5.368,1.381c1.663,0.973,3.445,1.696,5.368,2.104h4.798l-1.117-1.382L65.057,241.184z M88.499,242.565l2.09-0.753l-1.046-0.628
		L88.499,242.565z M40,241.812c0.332,0.879,0.855,1.569,1.591,2.135C41.331,243.005,40.785,242.314,40,241.812 M74.082,243.288
		l1.615,2.763C75.412,244.952,74.89,244.042,74.082,243.288"/>
	<path clip-path="url(#SVGID_2_)" fill="#F6F3E5" d="M87.382,141.301c2.138-1.601,4.631-2.575,7.506-2.857l4.749,2.103l1.591-1.381
		c0.926-2.638,1.473-5.683,1.591-9.105l0.569-7.095l-0.569-2.104l0.569-5.62l-0.569-2.103l-1.045-23.263l-0.546-2.136l-1.591-20.406
		l0.548-22.542l0.569-5.588l-0.569-2.136l-0.548-10.58l0.548-2.857c-0.5-2.575-1.402-5.148-2.638-7.723l-14.962-1.382l-7.934-2.103
		l-8.549,0.722c-2.47,0.314-5.13,1.035-8.003,2.135c-2.423-0.189-4.893-0.691-7.458-1.475l-2.09-1.382l-7.506,2.103l-5.842-0.721
		l-7.458,2.103l-13.846-2.103l-2.161,1.475l-1.045,10.485l1.614,18.398l-0.569,7.723l0.569,2.763l-0.569,9.92l-0.476,2.764
		l0.476,7.095l-0.476,5.588l0.476,2.135v26.749l0.569,7.723l-0.569,2.856l0.569,9.105l-1.045,5.621l2.09,2.103l13.846,3.61
		c2.09-0.251,4.394-0.753,6.959-1.475l5.273,0.722l1.614-1.382l1.591-2.103L40,110.283l0.546-2.763L40,104.663l1.591-16.922
		l-1.045-10.548l0.499-5.62l-0.499-2.135l1.045-6.97l0.57-2.135l-1.117-0.722l1.117-4.238l3.182,1.381l15.462,0.754l5.296-0.754
		l1.591,0.754h1.591l2.659,7.063v11.962l-1.045,2.103l1.045,4.898v2.103l0.546,5.62l-0.546,3.579h-0.498l0.498,0.658l-0.498,6.342
		l0.498,2.104l-1.614,27.501c0.048,3.297,1.117,6.123,3.206,8.477l4.798-1.475l2.161,1.475c1.211-0.376,2.613-0.628,4.252-0.753
		l1.044,0.753L87.382,141.301z M22.948,135.682c0.617-1.224,1.496-2.198,2.637-2.857l1.116,2.857H22.948z M74.082,135.682
		l-0.546-6.342l2.162,2.103l1.59,3.485L74.082,135.682z M86.337,134.206l0.57-0.66l1.591,1.382l-1.591,0.754L86.337,134.206z
		 M37.364,134.928c0.119-0.47,0.476-0.942,1.045-1.382C38.314,134.174,37.958,134.645,37.364,134.928 M99.139,134.928l-0.545-2.103
		h1.044v2.103H99.139z M14.944,134.206l-1.045-3.485l1.615-0.659l1.591,3.484L14.944,134.206z M92.75,130.062l-1.044-2.104
		C92.346,128.366,92.702,129.089,92.75,130.062 M78.334,127.205l-0.476-2.103l1.045,0.722v1.381H78.334z M83.131,126.483
		c0.095-0.628,0.451-1.067,1.045-1.381C84.129,125.698,83.796,126.169,83.131,126.483 M99.637,123.72l-0.499-2.857l1.046,0.754
		v2.103H99.637z M85.292,121.617l-0.545-2.136l1.044-1.474l1.117,2.856L85.292,121.617z M77.288,118.76
		c0.334-1.035,0.855-2.009,1.615-2.857C78.761,117.127,78.215,118.069,77.288,118.76 M98.593,118.76l-1.615-4.239
		c0.427-0.125,0.783-0.595,1.045-1.381l-1.045-4.238l1.615-1.382c0.688,1.664,1.044,3.548,1.044,5.62l0.548,4.867L98.593,118.76z
		 M79.948,113.14c0.118-1.161,0.475-2.354,1.021-3.579C80.97,110.786,80.637,111.979,79.948,113.14 M14.944,106.044l-0.475-4.206
		c0-0.816,0.332-1.256,1.045-1.382l1.044,2.104L14.944,106.044z M74.082,105.416c0.428-1.474,1.141-2.668,2.161-3.578
		C75.792,103.188,75.056,104.381,74.082,105.416 M98.593,103.313l-0.57-2.135h1.116L98.593,103.313z M29.906,100.456
		c0.38-0.816,0.903-1.256,1.591-1.381L29.906,100.456z M74.082,96.218l1.045-8.477l2.161,0.754L74.082,96.218z M14.469,94.115
		l1.045-1.382l0.546,2.763h-1.117L14.469,94.115z M21.902,95.496l-0.545-2.135l1.045,0.754L21.902,95.496z M37.364,94.115
		c0.048-1.35,0.38-2.764,1.045-4.238C38.409,91.163,38.053,92.577,37.364,94.115 M14.469,89.877l0.475-2.764l-1.045-10.58
		l0.57-1.475l1.591,2.135l2.089,7.064C16.891,85.858,15.657,87.71,14.469,89.877 M98.023,89.877l-1.591-2.764l1.591-6.341
		l0.57,6.969v2.136H98.023z M36.794,83.535c0.096-0.629,0.452-1.099,1.046-1.382C37.744,82.624,37.412,83.095,36.794,83.535
		 M81.54,78.637l0.546-2.103v2.103H81.54z M94.341,77.914c-1.021-2.197-1.734-4.771-2.162-7.723l2.162,1.382l3.206,4.96
		L94.341,77.914z M37.364,76.534l-0.57-2.103l1.046-1.476v2.858L37.364,76.534z M18.697,74.431l-4.228-4.239l0.475-21.881
		c0.19-1.978,0.713-3.611,1.614-4.898l1.094,2.135c-0.452,1.35-0.832,2.952-1.094,4.867l-1.044,6.341l1.044,2.135
		c0.69,2.199,1.07,4.772,1.094,7.724L18.697,74.431z M96.431,70.192l-1.045-2.856c0.048-2.261,0.237-4.835,0.546-7.724
		c0.617,2.512,0.949,5.086,1.045,7.724L96.431,70.192z M31.996,68.057l1.591-2.826C33.445,66.331,32.923,67.273,31.996,68.057
		 M29.906,64.572c0.238-1.601,0.76-3.014,1.591-4.238C31.237,61.746,30.691,63.16,29.906,64.572 M74.651,63.097
		c0.096-1.287,0.428-2.449,1.046-3.485C75.555,60.773,75.199,61.935,74.651,63.097 M94.341,58.231h1.045l-0.499,1.381L94.341,58.231
		z M24.562,55.374c0.024-0.973,0.38-1.915,1.022-2.857C25.585,53.584,25.252,54.526,24.562,55.374 M96.431,54.652
		c-1.021-1.413-1.71-3.046-2.09-4.897C95.458,51.041,96.146,52.673,96.431,54.652 M56.008,53.992
		c-0.926-2.387-1.472-4.741-1.614-7.063l4.251,6.342L56.008,53.992z M51.685,53.271v-1.382l1.117,0.628L51.685,53.271z
		 M45.344,51.889l-0.546-2.135l0.546-1.444l2.66,3.578H45.344z M75.127,51.889c0.19-1.099,0.57-2.073,1.116-2.857
		C76.196,50.067,75.84,51.041,75.127,51.889 M35.75,49.754v1.381h-0.546L35.75,49.754z M96.431,48.311l-4.726-7.755l1.044-1.349
		c0.5,0.595,1.211,1.067,2.138,1.349l-0.546-4.866c1.163,0.628,2.232,1.538,3.206,2.763C97.547,41.592,97.167,44.856,96.431,48.311
		 M71.944,47.65l-0.498-2.103l1.591-1.381l0.498,3.484H71.944z M65.057,45.547v1.382h-0.569L65.057,45.547z M50.641,41.309v1.381
		h-0.546L50.641,41.309z M61.851,42.69v-1.381l1.045,0.721L61.851,42.69z M57.599,42.03l-0.546-2.824l1.046,0.721v2.103H57.599z
		 M69.285,42.03l-1.045-3.578l2.09,1.475L69.285,42.03z M58.644,37.823l0.546-2.134l0.499,2.134H58.644z M65.532,34.213l1.117-0.628
		v2.104h-0.546L65.532,34.213z M17.652,33.585h0.499v1.381h-0.499V33.585z M53.277,33.585h1.117v1.382h-0.546L53.277,33.585z
		 M54.892,30.729l-0.499-2.104l1.045,0.722v1.382H54.892z M94.341,30.007v-1.382l1.045,0.722L94.341,30.007z M44.798,27.872
		l-1.045-2.764C44.395,25.925,44.751,26.836,44.798,27.872 M29.906,25.109l-0.545-2.103h1.044v2.103H29.906z M90.589,23.633
		l0.545-3.485l0.571,2.857L90.589,23.633z M95.933,23.633l-1.591-3.485C95.22,20.997,95.767,22.19,95.933,23.633 M16.061,22.253
		l-2.708-3.485h2.162l2.138,0.753L16.061,22.253z M20.786,22.253c0.19-1.036,0.737-1.947,1.615-2.732L20.786,22.253z M25.585,20.902
		v1.35h-0.476L25.585,20.902z M36.248,20.902v1.35H35.75L36.248,20.902z M54.892,21.625l-3.207-3.58l4.323,0.722L54.892,21.625z
		 M31.498,20.148l1.615-2.103C32.781,19.019,32.258,19.709,31.498,20.148 M65.057,20.148l-5.368-1.381
		c1.663-0.973,3.445-1.696,5.368-2.103h4.798l-1.117,1.381L65.057,20.148z M88.499,18.768l2.09,0.753l-1.046,0.628L88.499,18.768z
		 M40,19.52c0.332-0.879,0.855-1.569,1.591-2.135C41.331,18.328,40.785,19.019,40,19.52 M74.082,18.045l1.615-2.763
		C75.412,16.381,74.89,17.291,74.082,18.045"/>
</g>
<polygon fill="#F6F3E5" points="28.692,35.494 83.223,35.494 88.008,124.788 83.223,221.52 28.692,221.52 "/>
<g>
	<path fill="#EE7D00" d="M46.497,22.615c0.785,0.382,1.695,0.689,2.738,0.904l2.406,0.353l0.178,0.55l-1.194,2.505
		c-0.543,0.622-1.053,1.331-1.543,2.131l-8.229,10.038c0.018,0.745,0.294,1.462,0.839,2.151l3.601,3.742l2.407,4.852
		c0.589,0.493,1.106,1.145,1.534,1.964c0.526,0.326,1.096,0.568,1.729,0.708c0.036,0.876,0.375,1.648,1.016,2.318l0.865,2.161
		l-0.339,0.354c-0.855,0.325-1.72,0.744-2.584,1.257l-1.882,1.443c-0.383,0.306-0.839,0.54-1.363,0.707l-0.705-0.903
		c-0.383-0.727-0.945-1.377-1.694-1.965c-0.312-0.763-0.776-1.481-1.382-2.151l-0.839,0.55l-0.526-0.363l0.339-1.247l-1.543-1.965
		l-2.059-1.611l-1.882-1.992l-1.382-2.132l-0.339,0.521l1.043,5.019l0.339,6.09l-0.339,0.353l-1.382,0.735l-1.026-0.549
		c-0.605-0.327-1.292-0.625-2.059-0.904c-0.214,0.382-0.499,0.689-0.865,0.904c-0.294-0.307-0.632-0.494-1.017-0.54l-2.584,0.707
		l-1.356,0.186l-1.391-0.54h-1.017l0.678-1.61l0.187-3.222l-0.339-2.505l0.152-0.521v-3.054H23.54l0.152-0.197l-0.152-2.318
		l0.152-0.54v-1.964l0.187-0.521l-0.187-0.187l0.187-0.549v-1.965l0.152-0.549l-0.152-0.159l0.152-0.55l-0.152-5.54l-0.187-0.54
		l0.187-0.196l0.152-2.672v-0.353h-0.152l0.152-0.187v-2.514l0.187-0.521l-0.187-1.955l1.043-0.382l2.906-0.363
		c0.954-0.176,2.041-0.298,3.263-0.353l1.88-0.159l0.517,0.159l0.527,0.353l0.16,2.869c-0.365,0.856-0.597,1.871-0.687,3.054
		l-0.178,0.549l0.178,1.23v0.54l-0.178,0.549l0.178,0.159l-0.517,3.249c0.473-0.288,0.928-0.651,1.382-1.089l1.703-1.965
		c0.445-0.744,0.846-1.583,1.195-2.514c0.597-0.401,1.168-0.996,1.729-1.797l1.355-2.318l1.721-1.965l0.339-0.903l2.068,0.353
		C45.276,23.295,45.9,23.053,46.497,22.615 M31.422,23.872c0.329,0.326,0.731,0.568,1.204,0.707
		C32.242,24.255,31.84,24.021,31.422,23.872 M42.896,24.422c0.098,0.251,0.277,0.485,0.517,0.707
		C43.341,24.868,43.173,24.636,42.896,24.422 M46.497,24.422c0.072,0.251,0.241,0.485,0.518,0.707
		C46.916,24.86,46.738,24.617,46.497,24.422 M48.218,24.422c0.197,0.4,0.482,0.689,0.865,0.866
		C48.923,24.887,48.637,24.599,48.218,24.422 M26.1,24.579c-0.402,0.456-0.687,1.062-0.865,1.807l-0.339,0.894
		c0.205-0.102,0.383-0.289,0.526-0.54l1.017-1.611L26.1,24.579z M27.821,25.483h0.338v-0.354H27.98L27.821,25.483z M31.582,26.545
		v-0.353h-0.161L31.582,26.545z M32.625,26.927l0.339,0.167v-0.55h-0.178L32.625,26.927z M41.192,26.545l-0.178,0.55l0.339,0.186
		l0.178-0.735H41.192z M29.702,27.801c0.052,0.232,0.168,0.419,0.338,0.55L29.702,27.801z M47.541,28.537l0.16,0.708l0.179-0.54
		L47.541,28.537z M43.235,28.705c0.027,0.158,0.151,0.278,0.365,0.353C43.564,28.91,43.44,28.789,43.235,28.705 M43.939,30.148
		v-0.354h-0.187L43.939,30.148z M46.676,30.148l0.16,0.521v-0.521H46.676z M45.632,31.024l-1.542,2.345l0.526,0.159l1.542-2.318
		L45.632,31.024z M40.853,31.209l0.339,0.55C41.139,31.517,41.033,31.34,40.853,31.209 M30.04,32.112
		c0.036,0.214,0.152,0.401,0.339,0.541L30.04,32.112z M24.735,32.271c0.053,0.317,0.223,0.559,0.5,0.735L24.735,32.271z
		 M31.244,32.466c0.223,0.475,0.562,0.894,1.016,1.257C32.001,33.286,31.662,32.867,31.244,32.466 M42.209,35.52l-0.152,0.708
		l0.491-0.353C42.531,35.717,42.423,35.595,42.209,35.52 M31.244,36.041l-0.339,0.737l0.856-0.197
		C31.662,36.349,31.484,36.163,31.244,36.041 M34.667,36.041c0.036,0.159,0.143,0.28,0.339,0.354
		C34.988,36.247,34.872,36.125,34.667,36.041 M34.328,36.581l-1.204,1.258c0.036,0.271,0.143,0.512,0.339,0.707
		C33.864,38.007,34.15,37.345,34.328,36.581 M28.158,37.132v-0.354H27.98L28.158,37.132z M35.862,37.29l-0.491,0.717v0.54
		l0.339-0.159l0.5-0.735C36.191,37.504,36.076,37.383,35.862,37.29 M32.259,38.742c0.178,0.363,0.464,0.595,0.865,0.708
		C32.91,39.161,32.625,38.919,32.259,38.742 M35.006,38.742l0.178,0.354v-0.354H35.006z M24.896,39.45
		c0.053,0.232,0.169,0.418,0.339,0.54C25.199,39.758,25.083,39.58,24.896,39.45 M36.387,39.45v0.353l0.339-0.167L36.387,39.45z
		 M30.227,40.158v-0.354H30.04L30.227,40.158z M36.048,40.158h0.339l-0.178-0.354L36.048,40.158z M27.821,40.512l-0.179,0.903
		l0.517-0.549C28.124,40.763,28.016,40.642,27.821,40.512 M33.302,40.512l-0.338,0.903l0.677-0.707L33.302,40.512z M30.905,41.06
		v-0.353h-0.187L30.905,41.06z M24.735,41.247v1.07l0.339-0.903L24.735,41.247z M28.837,41.954V41.6h-0.153L28.837,41.954z
		 M38.946,42.317l-0.338,0.54C38.831,42.728,38.946,42.551,38.946,42.317 M29.362,42.504l-0.187,0.521l0.348-0.168v-0.353H29.362z
		 M40.328,42.857l-0.178,0.708l0.339-0.186v-0.523H40.328z M24.735,43.025l-0.178,1.089l0.178,0.354l0.339-0.735l-0.178-0.707
		H24.735z M38.269,43.211l-0.161,0.521l0.339-0.167v-0.354H38.269z M41.014,43.92c0.134,0.279,0.366,0.456,0.678,0.549L41.014,43.92
		z M42.896,43.92c0.026,0.167,0.142,0.289,0.339,0.353C43.199,44.17,43.082,44.05,42.896,43.92 M34.667,44.468l0.178,0.354
		l0.339-0.354v-0.354h-0.178L34.667,44.468z M30.379,44.273c0.161,0.262,0.383,0.438,0.678,0.55L30.379,44.273z M40.328,44.637
		l-0.178,0.735c0.223,0.177,0.402,0.298,0.517,0.354l0.187-0.904L40.328,44.637z M43.413,44.637
		c0.089,0.232,0.259,0.353,0.526,0.353C43.831,44.822,43.653,44.702,43.413,44.637 M24.557,44.822v2.514l0.517,0.159l0.348-0.521
		l0.339-1.247L24.557,44.822z M41.87,44.99l-0.178,0.54l0.365-0.158L41.87,44.99z M29.523,45.372
		c0.045,0.102,0.169,0.223,0.365,0.354C29.853,45.558,29.728,45.437,29.523,45.372 M31.422,45.529l0.161,0.55l0.178-0.353
		L31.422,45.529z M44.277,45.529c0.053,0.279,0.223,0.513,0.517,0.708C44.75,45.967,44.572,45.735,44.277,45.529 M39.651,45.726
		l0.16,0.512v-0.512H39.651z M42.735,45.726l-0.338,0.707C42.601,46.228,42.717,45.996,42.735,45.726 M41.014,45.884l0.178,0.55
		l0.161-0.55H41.014z M28.837,46.238l-0.153,0.735h0.491L28.837,46.238z M32.108,46.592c0.026,0.129,0.142,0.261,0.339,0.381
		C32.43,46.815,32.314,46.684,32.108,46.592 M44.954,46.786l0.865,1.965C45.623,48.1,45.338,47.439,44.954,46.786 M41.692,46.973
		l-0.161,0.521l0.339-0.159v-0.363H41.692z M31.422,48.044V47.69h-0.178L31.422,48.044z M37.065,47.848
		c0.25,0.606,0.642,1.146,1.204,1.639C38.215,48.761,37.814,48.212,37.065,47.848 M33.641,48.584l-0.339,2.514
		c0.267,0.438,0.491,0.968,0.678,1.611c0.268-0.568,0.437-1.163,0.526-1.807L33.641,48.584z M24.735,48.752l-0.178,1.444
		c0.125,0.204,0.294,0.316,0.517,0.353l0.5-1.061C25.369,49.218,25.083,48.966,24.735,48.752 M44.277,52.355v0.354l0.339-0.196
		L44.277,52.355z M24.735,52.709l0.161,0.512l0.178-0.512H24.735z M43.939,52.709l0.152,0.512l0.187-0.512H43.939z M34.667,54.478
		l-0.499,1.611c-0.241,0.056-0.419,0.177-0.527,0.354c0.108,0.307,0.286,0.615,0.527,0.904l0.838-1.062L34.667,54.478z
		 M47.88,55.213l-0.179,0.708l0.517-0.54L47.88,55.213z M28.497,55.735c0.053,0.131,0.169,0.242,0.34,0.354
		C28.819,55.94,28.711,55.828,28.497,55.735 M24.735,55.921c0.036,0.438,0.267,0.791,0.687,1.071
		C25.333,56.573,25.101,56.219,24.735,55.921 M32.108,56.638v-0.354h-0.187L32.108,56.638z M24.896,57.347v1.089l1.204,0.168
		l0.517-0.364L24.896,57.347z M27.821,57.347c0.053,0.381,0.214,0.679,0.499,0.893C28.247,57.914,28.079,57.616,27.821,57.347
		 M46.836,58.957c0.169,0.214,0.41,0.336,0.705,0.354L46.836,58.957z"/>
	<path fill="#EE7D00" d="M85.545,22.532c0.803,0.475,1.739,0.763,2.818,0.847l1.783-0.625l0.597,0.41
		c0.348,0.782,0.553,1.686,0.597,2.701l0.214,2.105l-0.214,0.622l0.214,1.668l-0.214,0.624l-0.392,6.899l-0.205,0.633l-0.597,6.052
		l0.205,6.686l0.214,1.657l-0.214,0.633l-0.205,3.137l0.205,0.847c-0.187,0.764-0.526,1.527-0.99,2.291l-5.616,0.41l-2.979,0.624
		l-3.208-0.214c-0.928-0.093-1.926-0.307-3.005-0.633c-0.909,0.055-1.837,0.205-2.799,0.438l-0.784,0.41l-2.817-0.624l-2.193,0.214
		l-2.799-0.624l-5.197,0.624l-0.813-0.438l-0.391-3.109l0.606-5.457L57.15,49.05l0.215-0.819l-0.215-2.943l-0.177-0.819l0.177-2.104
		l-0.177-1.657l0.177-0.634v-7.932l0.215-2.291l-0.215-0.846l0.215-2.701l-0.392-1.666l0.784-0.624l5.197-1.071
		c0.784,0.074,1.65,0.223,2.612,0.438l1.98-0.215l0.606,0.41l0.597,0.625l-0.991,7.533l0.205,0.819l-0.205,0.847l0.597,5.019
		l-0.392,3.129l0.188,1.666l-0.188,0.633l0.392,2.067l0.214,0.632l-0.418,0.215l0.418,1.257l1.195-0.411l5.804-0.223l1.988,0.223
		l0.596-0.223h0.597l0.998-2.096v-3.547l-0.392-0.625l0.392-1.451V39.04l0.205-1.666l-0.205-1.061h-0.187l0.187-0.196l-0.187-1.88
		l0.187-0.625l-0.606-8.156c0.018-0.978,0.419-1.815,1.204-2.514l1.801,0.438l0.811-0.438c0.454,0.112,0.98,0.186,1.596,0.223
		l0.392-0.223L85.545,22.532z M61.359,24.198c0.231,0.363,0.562,0.652,0.99,0.847l0.419-0.847H61.359z M80.553,24.198l-0.205,1.88
		l0.812-0.624l0.597-1.034L80.553,24.198z M85.154,24.636l0.213,0.196l0.597-0.411l-0.597-0.223L85.154,24.636z M66.771,24.421
		c0.045,0.14,0.178,0.279,0.391,0.411C67.127,24.645,66.994,24.506,66.771,24.421 M89.959,24.421l-0.205,0.625h0.392v-0.625H89.959z
		 M58.354,24.636l-0.391,1.033l0.605,0.196l0.597-1.033L58.354,24.636z M87.56,25.865l-0.392,0.624
		C87.409,26.368,87.543,26.154,87.56,25.865 M82.149,26.712l-0.178,0.624l0.392-0.214v-0.41H82.149z M83.95,26.926
		c0.035,0.187,0.168,0.317,0.391,0.41C84.324,27.159,84.2,27.02,83.95,26.926 M90.146,27.746l-0.187,0.846l0.392-0.223v-0.624
		H90.146z M84.762,28.37l-0.205,0.633l0.392,0.437l0.418-0.847L84.762,28.37z M81.757,29.217c0.125,0.307,0.32,0.595,0.606,0.847
		C82.31,29.701,82.105,29.422,81.757,29.217 M89.753,29.217l-0.606,1.257c0.161,0.037,0.294,0.177,0.392,0.41l-0.392,1.257
		l0.606,0.41c0.259-0.493,0.392-1.053,0.392-1.666l0.205-1.444L89.753,29.217z M82.755,30.884c0.045,0.344,0.178,0.699,0.383,1.061
		C83.139,31.582,83.014,31.228,82.755,30.884 M58.354,32.988l-0.178,1.248c0,0.241,0.125,0.373,0.392,0.41l0.393-0.625
		L58.354,32.988z M80.553,33.175c0.161,0.437,0.428,0.791,0.811,1.061C81.195,33.835,80.919,33.482,80.553,33.175 M89.753,33.797
		l-0.214,0.634h0.419L89.753,33.797z M63.971,34.646c0.142,0.242,0.339,0.372,0.596,0.41L63.971,34.646z M80.553,35.903l0.392,2.514
		l0.811-0.224L80.553,35.903z M58.176,36.526l0.392,0.41l0.205-0.819h-0.419L58.176,36.526z M60.967,36.117l-0.204,0.633
		l0.391-0.224L60.967,36.117z M66.771,36.526c0.017,0.401,0.142,0.819,0.391,1.257C67.162,37.402,67.028,36.982,66.771,36.526
		 M58.176,37.783l0.178,0.819l-0.391,3.138l0.213,0.438l0.597-0.633l0.785-2.096C59.085,38.975,58.622,38.425,58.176,37.783
		 M89.539,37.783l-0.597,0.819l0.597,1.882l0.214-2.067v-0.633H89.539z M66.557,39.665c0.035,0.186,0.169,0.325,0.392,0.408
		C66.913,39.934,66.788,39.794,66.557,39.665 M83.353,41.116l0.205,0.625v-0.625H83.353z M88.158,41.331
		c-0.382,0.652-0.651,1.414-0.811,2.29l0.811-0.41l1.204-1.471L88.158,41.331z M66.771,41.741l-0.214,0.624l0.392,0.438v-0.847
		L66.771,41.741z M59.764,42.364l-1.588,1.257l0.178,6.49c0.072,0.588,0.268,1.071,0.607,1.452l0.41-0.633
		c-0.169-0.4-0.312-0.876-0.41-1.443l-0.393-1.882l0.393-0.632c0.257-0.652,0.401-1.416,0.41-2.291L59.764,42.364z M88.942,43.621
		l-0.392,0.847c0.018,0.67,0.09,1.434,0.205,2.291c0.231-0.745,0.356-1.509,0.392-2.291L88.942,43.621z M64.756,44.254l0.597,0.838
		C65.299,44.766,65.103,44.487,64.756,44.254 M63.971,45.288c0.089,0.476,0.285,0.894,0.596,1.257
		C64.471,46.126,64.266,45.707,63.971,45.288 M80.766,45.725c0.037,0.381,0.162,0.727,0.393,1.034
		C81.106,46.414,80.973,46.071,80.766,45.725 M88.158,47.169h0.392l-0.187-0.41L88.158,47.169z M61.965,48.016
		c0.009,0.289,0.142,0.568,0.383,0.846C62.348,48.547,62.223,48.267,61.965,48.016 M88.942,48.23
		c-0.382,0.419-0.641,0.903-0.784,1.452C88.577,49.302,88.836,48.817,88.942,48.23 M73.769,48.426
		c-0.348,0.707-0.553,1.406-0.606,2.094l1.596-1.88L73.769,48.426z M72.146,48.64v0.41l0.419-0.187L72.146,48.64z M69.766,49.05
		l-0.205,0.633l0.205,0.428l0.998-1.061H69.766z M80.945,49.05c0.072,0.326,0.214,0.615,0.419,0.847
		C81.346,49.589,81.213,49.302,80.945,49.05 M66.164,49.683v-0.41h-0.204L66.164,49.683z M88.942,50.111l-1.774,2.301l0.392,0.4
		c0.188-0.177,0.455-0.316,0.803-0.4l-0.205,1.443c0.437-0.186,0.839-0.456,1.204-0.82C89.361,52.104,89.219,51.135,88.942,50.111
		 M79.75,50.306l-0.187,0.624l0.597,0.411l0.187-1.034H79.75z M77.166,50.93v-0.41h-0.215L77.166,50.93z M71.754,52.188v-0.411
		H71.55L71.754,52.188z M75.962,51.777v0.411l0.391-0.215L75.962,51.777z M74.367,51.973l-0.205,0.839l0.392-0.214v-0.625H74.367z
		 M78.752,51.973l-0.392,1.061l0.784-0.437L78.752,51.973z M74.759,53.221l0.205,0.633l0.187-0.633H74.759z M77.344,54.292
		l0.418,0.186v-0.624h-0.204L77.344,54.292z M59.371,54.478h0.188v-0.41h-0.188V54.478z M72.744,54.478h0.419v-0.41h-0.205
		L72.744,54.478z M73.35,55.325l-0.187,0.624l0.392-0.214v-0.41H73.35z M88.158,55.54v0.408l0.392-0.214L88.158,55.54z
		 M69.561,56.173l-0.392,0.819C69.41,56.751,69.543,56.48,69.561,56.173 M63.971,56.992l-0.205,0.625h0.392v-0.625H63.971z
		 M86.75,57.43l0.204,1.034l0.214-0.847L86.75,57.43z M88.755,57.43l-0.597,1.034C88.488,58.212,88.692,57.859,88.755,57.43
		 M58.773,57.839l-1.016,1.034h0.81l0.803-0.224L58.773,57.839z M60.547,57.839c0.072,0.307,0.277,0.578,0.606,0.81L60.547,57.839z
		 M62.348,58.24v-0.401H62.17L62.348,58.24z M66.352,58.24v-0.401h-0.188L66.352,58.24z M73.35,58.025l-1.204,1.062l1.623-0.214
		L73.35,58.025z M64.568,58.464l0.607,0.624C65.05,58.798,64.853,58.594,64.568,58.464 M77.166,58.464l-2.015,0.41
		c0.624,0.288,1.292,0.502,2.015,0.624h1.8l-0.419-0.41L77.166,58.464z M85.964,58.873l0.785-0.224l-0.392-0.186L85.964,58.873z
		 M67.759,58.65c0.126,0.261,0.322,0.466,0.597,0.633C68.259,59.003,68.054,58.798,67.759,58.65 M80.553,59.087l0.606,0.819
		C81.053,59.581,80.856,59.31,80.553,59.087"/>
	<path fill="#EE7D00" d="M41.3,65.054c0.612,0.419,1.386,0.754,2.311,1.006l0.91-0.41c0.639,0.241,1.412,0.373,2.31,0.41
		l6.727-0.596l0.883-0.41c0.666,0.251,1.44,0.391,2.351,0.41l2.948,0.187h0.869v-0.187l2.622,0.187l2.039-0.596l0.597,0.596
		l-1.753,2.402c-0.136,0.578-0.42,1.183-0.883,1.797l-2.065,2.021l-1.426,2.207l-2.079,1.806c-0.231,0.745-0.625,1.481-1.155,2.207
		L48.584,89.3c0.163,0.475,0.272,1.016,0.326,1.611l-0.326,0.41h1.195l4.104,0.41l6.726-1.2l0.87,0.595l-0.87,3.799l0.272,0.596
		l-0.272,0.819l0.557,1.992l-0.286,0.819l0.286,1.992c-0.611,0.653-1.575,0.987-2.907,1.006l-3.506-0.41l-7.596,1.201l-4.417-0.186
		l-8.166,0.4l-1.752-0.214c-0.218,0.037-0.408,0.177-0.599,0.41h-0.869l-4.39-0.41l-3.22,0.214l-0.869-0.4
		c-0.381-0.336-0.571-0.735-0.599-1.201l1.155-0.605l1.753-2.022l2.338-1.797c0.461-0.726,1.045-1.461,1.752-2.206l7.922-7.802
		c0.38-0.625,0.869-1.23,1.481-1.825l2.025-1.807c0.557-0.633,1.237-1.294,2.038-1.993l1.468-2.402l1.753-2.011l0.597-1.015
		l-2.351-0.187l-2.025,0.187L41.3,75.883h-0.869l-4.103-0.41l-4.376,0.41l-3.547,0.792l-2.635,0.214l-0.273-0.819l0.273-0.187
		l0.326-1.611l-0.326-0.605l0.597-2.998l-1.182-1.005l1.467-0.411l-0.285-1.396l0.285-0.401c0.191-0.186,0.477-0.316,0.871-0.381
		l4.103-0.41l0.883-0.605c0.556,0.242,1.236,0.437,2.065,0.605l4.103-0.224C39.575,66.134,40.458,65.668,41.3,65.054 M54.156,66.851
		l-0.599,0.82l1.752-0.82H54.156z M60.297,66.851c-0.353,0.633-0.543,1.313-0.557,2.021l0.869,0.978l2.351-2.178
		C62.348,67.122,61.452,66.851,60.297,66.851 M40.989,67.261l-0.557,0.792l1.155-0.381C41.532,67.485,41.329,67.354,40.989,67.261
		 M37.483,67.857l0.869-0.186l-0.597-0.215L37.483,67.857z M34.262,67.671l-0.285,0.595h0.597v-0.595H34.262z M37.197,67.857
		l-0.869,0.791C36.749,68.472,37.047,68.211,37.197,67.857 M53,67.857l-0.87,0.791C52.579,68.491,52.877,68.23,53,67.857
		 M42.741,68.267l-0.285,0.605h0.597v-0.605H42.741z M38.08,69.253l-0.326,0.82l0.597-0.224v-0.596H38.08z M28.405,69.85v-0.381
		H28.12L28.405,69.85z M34.262,70.259h0.584v-0.41h-0.272L34.262,70.259z M40.105,70.455v0.411l0.597-0.197L40.105,70.455z
		 M59.414,71.87v-0.41h-0.272L59.414,71.87z M54.441,72.28l-0.557,0.792l1.155-0.41C54.984,72.504,54.78,72.373,54.441,72.28
		 M48.584,73.072l-0.87,1.006C48.163,73.826,48.448,73.491,48.584,73.072 M41.586,73.267L41.3,74.683
		c0.883-0.018,1.753-0.159,2.624-0.411C43.108,74.058,42.319,73.714,41.586,73.267 M35.445,73.864v-0.382h-0.313L35.445,73.864z
		 M34.575,73.864l-0.597,0.819l1.155-0.605L34.575,73.864z M27.848,74.078l-0.597,1.396l1.155-1.201L27.848,74.078z M55.038,77.085
		l0.272,0.595v-0.595H55.038z M54.441,78.285c-0.612,0.252-1.292,0.587-2.039,1.006c0.11,0.456,0.408,0.857,0.883,1.201
		C53.789,79.841,54.169,79.105,54.441,78.285 M51.805,81.694l-0.273,0.819l0.869-0.224C52.334,82.019,52.13,81.815,51.805,81.694
		 M43.611,82.699L43.054,83.9c0.163,0.242,0.448,0.373,0.87,0.41l0.883-0.596C44.562,83.332,44.167,82.988,43.611,82.699
		 M41.586,84.505l-1.155,1.192l0.869,0.605l0.883-0.41C42.129,85.418,41.926,84.953,41.586,84.505 M49.779,85.102l-0.597,1.005
		C49.549,85.799,49.752,85.465,49.779,85.102 M38.678,87.308l-1.794,1.611l-0.556,0.986c0.081,0.14,0.257,0.279,0.556,0.411
		l0.313-0.197l2.351-2.402L38.678,87.308z M46.559,88.323l-0.285,0.596l0.883,0.196C47.076,88.798,46.872,88.538,46.559,88.323
		 M34.846,91.321l-2.024,2.207l-1.468,1.2c0.067,0.13,0.272,0.27,0.597,0.41l0.272-0.214l1.468-1.992
		C34.276,92.494,34.669,91.954,34.846,91.321 M58.259,92.113l-0.87,1.824l0.87-0.408c0.502-0.401,0.896-0.867,1.155-1.416H58.259z
		 M56.193,92.327l-0.285,0.605l0.597-0.224v-0.381H56.193z M41.586,92.708c0.041,0.662,0.34,1.267,0.87,1.835
		C42.375,93.863,42.089,93.258,41.586,92.708 M52.402,92.932l0.287,0.596L53,92.932H52.402z M48.027,93.118l-0.313,0.605
		l0.599,0.214l0.272-0.622L48.027,93.118z M54.754,93.529l-0.313,0.791l0.597-0.186v-0.605H54.754z M59.142,94.134l-0.286,0.595
		h0.557v-0.595H59.142z M44.807,95.744l0.272,0.596v-0.596H44.807z M37.483,95.93c0.027,0.493,0.217,0.959,0.597,1.397
		C38.026,96.852,37.822,96.387,37.483,95.93 M29.602,96.34v0.381l0.557-0.186L29.602,96.34z M50.935,97.541v-0.411h-0.273
		L50.935,97.541z M57.988,97.131c0.149,0.205,0.448,0.336,0.869,0.411C58.694,97.336,58.408,97.206,57.988,97.131 M53,98.137v-0.41
		h-0.312L53,98.137z M59.414,98.546l-0.557,1.583l0.883-0.381v-1.005L59.414,98.546z M48.91,99.151v-0.408h-0.326L48.91,99.151z
		 M33.692,99.338l-0.583,1.611c0.176,0.242,0.475,0.363,0.869,0.381l0.869-0.792L33.692,99.338z M50.935,99.943v-0.41h-0.273
		L50.935,99.943z M25.186,100.734l-0.557,1.006l1.468,0.224L25.186,100.734z M29.602,100.734l-0.326,0.82l0.597,0.186v-0.791
		L29.602,100.734z M41.3,100.734c0.422,0.401,1.006,0.735,1.753,1.006l2.908-0.41l-0.557-0.596
		c-0.503,0.122-0.992,0.327-1.481,0.596L41.3,100.734z M34.846,101.554c0.054,0.251,0.259,0.446,0.599,0.595
		C35.377,101.88,35.173,101.675,34.846,101.554"/>
	<path fill="#EE7D00" d="M78.845,65.157l2.907,0.196l1.032-0.196c1.089,0.149,2.066,0.446,2.909,0.903l1.318,4.143l-0.246,0.55
		l0.246,2.151l-0.517,1.098l-5.544-0.549l-2.105,0.549l-0.748-0.381l-2.119-0.167l-0.516,0.354l-0.788-0.187
		c-0.911,0.196-1.972,0.326-3.194,0.381l-0.516-2.542l0.285-1.992l-0.802-1.611l0.517-0.54c0.42-0.587,0.951-1.182,1.589-1.797
		l0.802-0.167l2.106,0.167C76.547,65.483,77.676,65.361,78.845,65.157 M80.434,66.61v-0.354h-0.272L80.434,66.61z M84.374,66.61
		l-0.23,0.54h0.516v-0.54H84.374z M81.752,68.406l-0.802,0.903C81.493,69.087,81.752,68.788,81.752,68.406 M79.645,71.107
		l-0.516,0.707l1.033-0.354C80.135,71.302,79.958,71.181,79.645,71.107 M84.891,71.814l-0.747,0.903
		C84.592,72.531,84.85,72.234,84.891,71.814 M72.797,72.364c0.028,0.251,0.203,0.437,0.557,0.54
		C73.273,72.671,73.083,72.493,72.797,72.364 M82.269,77.215c0.951,0.205,1.928,0.336,2.907,0.382l1.318-0.187l0.272,0.187
		l-0.272,1.257l-0.801,1.992l0.516,2.514l-0.231,1.797l0.231,0.54l1.589,16.044c-0.842,0.307-1.807,0.549-2.907,0.707l-2.854,0.55
		c-0.027-0.401-0.299-0.699-0.802-0.904l-2.908,0.354l-1.549-0.186l-0.557,0.186l-0.76,0.354c-0.53,0.204-1.155,0.381-1.875,0.549
		l-0.789-0.353c-0.556-0.476-0.91-1.071-1.032-1.798l0.272-0.549l-0.557-1.444l0.802-4.693l-0.516-4.665l0.272-2.188l-0.557-9.349
		l4.226-0.194l0.789,0.194l3.669,0.187L82.269,77.215z M83.858,78.667l-1.305,1.631l1.033-0.187
		c0.584-0.382,1.019-0.866,1.305-1.444H83.858z M75.977,79.207v0.355l0.517-0.159L75.977,79.207z M73.069,79.403v0.707l0.803-0.549
		L73.069,79.403z M84.144,80.846l-0.802,0.708l0.802,0.549L84.66,81.2L84.144,80.846z M80.162,81.749l-0.246,0.708l0.517-0.196
		v-0.513H80.162z M78.845,83.714V83.36h-0.231L78.845,83.714z M77.294,84.254l-0.516,0.707l1.033-0.353
		C77.784,84.45,77.607,84.329,77.294,84.254 M81.752,84.254l-0.272,0.707h0.789C82.213,84.692,82.05,84.459,81.752,84.254
		 M84.66,84.608l-0.802,1.089c0.054,0.113,0.231,0.234,0.516,0.363c0.244-0.036,0.422-0.158,0.517-0.363v-0.893L84.66,84.608z
		 M83.071,86.415v-0.355h-0.287L83.071,86.415z M84.66,86.246l-0.286,0.904h0.517v-0.197L84.66,86.246z M84.891,88.407
		c-0.503,0.344-0.747,0.764-0.747,1.247C84.564,89.291,84.823,88.873,84.891,88.407 M85.176,90.911l-1.032,1.639l0.747,0.158
		c-0.068,0.513-0.327,0.997-0.747,1.454c0,0.159,0.176,0.279,0.516,0.353c0.476-0.55,0.815-1.145,1.033-1.807
		C85.639,92.15,85.462,91.546,85.176,90.911 M85.176,95.604h0.517v-0.353h-0.231L85.176,95.604z M85.176,97.755
		c-0.476,0.401-0.747,0.829-0.802,1.285C84.81,98.677,85.067,98.249,85.176,97.755 M75.189,100.102
		c-0.612,0.512-1.06,1.108-1.318,1.807C74.428,101.378,74.862,100.782,75.189,100.102 M85.693,100.297l-0.517,0.903
		C85.489,100.921,85.665,100.623,85.693,100.297 M80.162,100.456l-0.246,0.55h0.517l0.285-0.55H80.162z"/>
	<path fill="#EE7D00" d="M41.405,110.367c0.748,0.279,1.596,0.475,2.532,0.605l5.277,0.624c0.606,0.242,1.266,0.577,1.962,1.015
		l0.204,3.269l-0.204,1.415l0.204,0.408l0.188,0.634l-0.58,2.643l-0.205,2.645l0.393,1.415l-0.393,0.632l0.205,1.639l-0.205,0.596
		v15.716l0.205,1.825l-0.597,0.596l-2.14,0.633l-2.54-0.224l-2.738,0.224c-0.035,0.633-0.231,1.238-0.579,1.825
		c-0.401-0.531-0.918-1.071-1.56-1.639c-0.49-0.577-0.883-1.266-1.177-2.048l-0.215-2.645l0.215-3.054l-0.579-5.288l0.186-3.054
		l0.178-0.634l-0.178-1.63c-0.276-0.66-0.668-1.331-1.177-2.021l-2.923,0.187c-0.455,0.382-0.847,0.856-1.178,1.425l-0.784,10.829
		l-0.178,1.2l0.178,0.411l0.392,0.4c-0.276,0.782-0.473,1.676-0.57,2.681l-0.214,2.012l0.214,0.633l-0.606,0.595l-1.543-0.595
		c-0.536,0.074-1.061,0.269-1.56,0.595c-0.767,0.13-1.488,0.336-2.175,0.633l-1.748-0.41l-0.392,0.596
		c-0.481-0.094-0.875-0.364-1.177-0.82l-0.392-0.595l0.214-1.853l-0.392-0.605c0.16-0.456,0.285-0.996,0.392-1.639l0.391-4.692
		l-0.213-0.596l0.213-1.638l-0.213-0.411v-2.644h-0.178l0.178-0.214l-0.392-2.244l0.214-2.039l-0.597-0.381l0.597-5.103
		l-0.392-2.263l-0.393-0.605c0.108-0.54,0.294-1.09,0.571-1.639l0.214-1.416l-0.214-0.408l0.214-0.411l-0.214-0.214l0.392-2.84
		l7.63-0.819h2.532l0.597,0.196h2.933l0.57-0.196l1.748,0.196L41.405,110.367z M33.809,113.01h0.383v-0.4h-0.205L33.809,113.01z
		 M37.518,112.61l-0.606,2.235l0.784-0.605l1.177-1.416L37.518,112.61z M40.621,112.61c-0.499,0.485-0.829,1.034-0.963,1.63
		C40.13,113.773,40.451,113.225,40.621,112.61 M28.71,112.824c-0.205,0.568-0.339,1.173-0.392,1.825l0.784-0.596l0.998-1.229H28.71z
		 M44.544,113.233h0.392v-0.41h-0.214L44.544,113.233z M48.645,112.824c-0.304,0.326-0.5,0.737-0.606,1.229l1.177-0.408
		c0.035,0.129,0.169,0.26,0.392,0.408C49.366,113.579,49.045,113.168,48.645,112.824 M24.609,113.644
		c0.053,0.363,0.187,0.697,0.392,1.005l0.392-0.596C25.224,113.848,24.957,113.718,24.609,113.644 M45.506,113.83l-0.392,0.819
		C45.355,114.435,45.489,114.165,45.506,113.83 M43.366,114.239l-0.392,0.605C43.232,114.714,43.366,114.519,43.366,114.239
		 M31.064,114.649l-0.188,0.605h0.366l0.213-0.41L31.064,114.649z M48.645,114.844c-0.25,0.289-0.374,0.633-0.393,1.034l0.785-0.411
		C48.983,115.199,48.85,114.985,48.645,114.844 M34.977,115.06l-0.204,0.605l0.392-0.197L34.977,115.06z M42.583,115.06
		l-0.393,0.605C42.448,115.533,42.583,115.329,42.583,115.06 M26,116.073v-0.408h-0.214L26,116.073z M29.887,116.073l-0.178,0.81
		l0.392-0.186v-0.625H29.887z M33.595,116.287c0.053,0.252,0.187,0.457,0.392,0.596C33.934,116.614,33.809,116.419,33.595,116.287
		 M41.227,116.698l-0.214,0.596l0.392-0.187v-0.41H41.227z M46.888,116.698l-0.205,0.596h0.392l0.205-0.596H46.888z M25.001,117.294
		v-0.411h-0.178L25.001,117.294z M39.265,117.294l-0.186,0.632l0.364-0.224v-0.408H39.265z M30.876,117.517l-0.392,0.596
		C30.734,117.992,30.859,117.786,30.876,117.517 M25.608,118.745c-0.473,0.578-0.802,1.323-0.998,2.235
		c0.125,0.307,0.32,0.578,0.606,0.82l0.178-0.633l-0.178-0.41l-0.214-0.81l0.214-0.196c0.383,0.205,0.704,0.475,0.962,0.82
		C26.107,119.975,25.919,119.36,25.608,118.745 M31.242,119.128h0.392v-0.382h-0.179L31.242,119.128z M46.888,122.396v-0.41h-0.205
		L46.888,122.396z M47.468,123.029c0.017,0.289,0.142,0.55,0.392,0.792C47.806,123.504,47.672,123.243,47.468,123.029
		 M49.215,124.035c0.054,0.186,0.188,0.316,0.392,0.41C49.59,124.259,49.455,124.128,49.215,124.035 M35.734,124.854l-0.391,0.819
		l1.177-0.223L35.734,124.854z M33.809,125.264c0.01,0.177,0.143,0.317,0.383,0.41C34.166,125.487,34.032,125.357,33.809,125.264
		 M33.025,126.084c-0.303,0.381-0.5,0.856-0.606,1.414C32.713,127.097,32.918,126.624,33.025,126.084 M31.455,126.269
		c-0.454,0.493-0.846,1.098-1.177,1.835C30.787,127.61,31.179,126.996,31.455,126.269 M24.823,126.903v-0.411h-0.214L24.823,126.903
		z M49.429,126.679c-0.32,0.531-0.517,1.136-0.606,1.834C49.188,127.983,49.393,127.368,49.429,126.679 M40.229,126.903
		c0.017,0.652,0.151,1.322,0.392,2.011l0.606-0.401C40.977,128.001,40.648,127.461,40.229,126.903 M25.215,127.909
		c0.348,0.707,0.802,1.387,1.355,2.048C26.241,129.249,25.786,128.559,25.215,127.909 M24.609,128.318
		c0.161,1.033,0.678,1.852,1.569,2.458C25.76,129.957,25.243,129.137,24.609,128.318 M49.429,128.914l-0.784,1.043l0.57,0.82
		l0.597-1.23C49.768,129.276,49.634,129.062,49.429,128.914 M24.823,130.553h0.178v-0.41h-0.178V130.553z M25.001,130.962
		l0.392,0.41l-0.178-0.819L25.001,130.962z M47.646,130.777l0.392,0.791C48.003,131.251,47.878,130.99,47.646,130.777
		 M49.607,131.568l-0.784,1.033l0.392,0.596C49.455,132.713,49.59,132.163,49.607,131.568 M46.683,131.977l-0.187,0.81l0.392-0.187
		v-0.624H46.683z M24.823,132.387c0.072,0.289,0.259,0.559,0.57,0.81L24.823,132.387z M40.051,133.607v2.868
		c0.437-0.167,0.829-0.438,1.177-0.82l0.57-0.819l-0.962,0.411L40.051,133.607z M47.646,133.83c0.053,0.159,0.187,0.298,0.392,0.41
		C48.021,134.053,47.895,133.924,47.646,133.83 M32.419,134.24l-0.571,1.006C32.196,134.994,32.383,134.659,32.419,134.24
		 M42.003,134.835v-0.41h-0.205L42.003,134.835z M48.645,135.246l0.178,1.014c0.348-0.26,0.678-0.595,0.99-1.014H48.645z
		 M29.495,136.475c0.053,0.13,0.187,0.261,0.392,0.41C29.851,136.698,29.726,136.567,29.495,136.475 M25.001,137.294h0.392v-0.41
		h-0.178L25.001,137.294z M46.683,137.481l-0.187,0.632l0.579-0.41L46.683,137.481z M30.671,137.703l0.205,0.82l0.188-0.411
		L30.671,137.703z M49.037,138.113l0.178,0.411l0.597-0.411c-0.027-0.186-0.161-0.316-0.383-0.41L49.037,138.113z M26,138.113
		l0.392,0.596C26.339,138.439,26.205,138.234,26,138.113 M47.86,139.119c0.079,0.269,0.276,0.41,0.569,0.41
		C48.323,139.333,48.136,139.194,47.86,139.119 M47.075,140.758v-0.411h-0.187L47.075,140.758z M49.215,140.944h0.392v-0.4h-0.178
		L49.215,140.944z M45.328,141.168v-0.41h-0.214L45.328,141.168z M25.215,141.987c0.053,0.122,0.178,0.261,0.392,0.41
		C25.572,142.21,25.438,142.079,25.215,141.987 M48.429,142.583l-1.542,1.452c0.108,0.307,0.303,0.567,0.58,0.782
		C47.905,144.165,48.225,143.421,48.429,142.583 M31.635,143.402l-0.758,1.415l0.579,0.223l0.392-0.41v-1.006L31.635,143.402z
		 M24.823,144.631l-0.214,1.006l0.214,0.41l0.57-0.186C25.323,145.385,25.135,144.975,24.823,144.631 M41.405,144.631
		c0.053,0.307,0.188,0.577,0.392,0.819l0.392-0.819H41.405z"/>
	<path fill="#EE7D00" d="M80.64,110.31l3.263,0.381c0.971-0.018,2.068-0.139,3.263-0.381l-0.544,2.457v3.632l0.544,2.644
		l-0.366,3.25l0.188,6.052l0.178,0.568c0.035,0.856,0.161,1.75,0.365,2.682l-0.365,1.117l1.096-0.381l0.366,0.186l-1.64,1.722
		l0.365,1.91l-0.365,0.568c0.151,0.475,0.401,0.978,0.73,1.499c-0.25,0.167-0.49,0.418-0.73,0.772l0.178,1.909l-0.178,0.568
		c-0.179,0.893-0.295,1.9-0.366,3.025l-0.704,2.458l-1.462,0.578l-3.637-0.382l-0.731,0.187l-1.828-0.382l-0.544,0.196l-2.166-0.196
		l-5.644,0.959h-1.987l-0.366,0.186l-0.178-0.186l-0.365,0.186l-7.837,0.959l-0.526-0.196l-0.178-0.949
		c-0.178-0.419-0.304-0.922-0.366-1.509l0.366-1.526l-0.188-1.527l0.188-0.949l0.178-2.645l-0.178-3.602
		c0.079-0.913,0.267-1.927,0.543-3.054l0.161-2.645l0.731-0.196c0.82-0.288,1.791-0.484,2.923-0.568
		c0.473-0.373,1.008-0.558,1.614-0.577l1.284-0.577c0.223,0.055,0.41,0.186,0.553,0.381l2.165-0.187l4.912-1.499l2.559-0.381
		l-0.188-0.764l0.188-2.104l-0.366-3.025c-0.017-0.596-0.142-1.109-0.365-1.527l-0.918,0.568l-1.284-0.951l-2.898,0.765
		l-2.531,0.186l-0.178,0.577l-0.187,2.077l0.187,0.763l-0.365,2.672l0.178,0.568l-0.366,0.735l-1.462-0.353l-2.897,0.735
		l-0.731-0.187l-1.827,0.187c-0.714-0.234-1.383-0.606-1.988-1.118l-1.097-0.381l1.097-0.949l-0.731-0.382v-2.84l0.187-2.104
		l-0.187-0.764l0.553-3.212l0.909-2.868l0.187-1.312l1.248,0.194l0.553-0.194l3.075-0.382c0.75-0.047,1.48-0.242,2.202-0.568
		l2.71,0.187l2.014-0.187l0.544,0.187l9.459-0.568V110.31z M78.991,111.455c-0.205,0.13-0.329,0.326-0.365,0.577
		C78.857,111.865,78.974,111.679,78.991,111.455 M81.005,111.455l-1.461,0.959l-0.731,0.735h0.909l2.014-1.695H81.005z
		 M82.628,111.455c0.027,0.167,0.151,0.298,0.366,0.382C82.977,111.661,82.851,111.53,82.628,111.455 M77.19,111.651l-1.096,0.764
		v0.55l0.553-0.197C76.977,112.48,77.155,112.107,77.19,111.651 M84.635,111.651l0.187,0.578l0.544-0.578H84.635z M62.642,112.415
		l-0.545,0.196l0.366,0.735l0.731-0.578L62.642,112.415z M68.81,112.61l0.543,1.499l1.097-0.578L68.81,112.61z M59.012,112.768
		v1.723l0.892-0.959C59.726,113.168,59.43,112.918,59.012,112.768 M67.375,112.768l-0.187,1.146l0.365,0.196l0.366-1.145
		L67.375,112.768z M65.548,113.15l-0.188,0.577h0.366l0.187-0.577H65.548z M74.997,113.15l-0.178,0.577l0.544,0.187L74.997,113.15z
		 M78.082,113.531c0.036,0.344,0.151,0.662,0.366,0.959l0.178-0.764L78.082,113.531z M85.731,114.296v-0.382h-0.178L85.731,114.296z
		 M61,114.109c0.036,0.158,0.152,0.288,0.366,0.381C61.33,114.36,61.205,114.231,61,114.109 M81.736,114.491h0.339v-0.381h-0.178
		L81.736,114.491z M66.091,114.296c0.036,0.288,0.161,0.549,0.366,0.763L66.091,114.296z M74.087,114.677v-0.381H73.9
		L74.087,114.677z M79.91,114.296c0.052,0.26,0.168,0.446,0.365,0.577C80.222,114.612,80.097,114.425,79.91,114.296 M64.076,114.491
		l-0.517,0.949C63.835,115.208,64.014,114.891,64.076,114.491 M71.912,114.491c0.036,0.159,0.161,0.289,0.366,0.382l0.187-0.196
		L71.912,114.491z M78.813,115.059c0.053,0.289,0.169,0.55,0.366,0.764C79.179,115.553,79.053,115.301,78.813,115.059
		 M80.819,115.254l-0.366,0.568h0.552v-0.568H80.819z M72.644,115.637c0.017,0.232,0.134,0.428,0.339,0.567
		C72.955,115.953,72.839,115.757,72.644,115.637 M75.916,116.018h0.365v-0.381h-0.187L75.916,116.018z M59.351,115.822l-0.704,0.764
		c0.035,0.261,0.16,0.446,0.365,0.577C59.235,116.782,59.351,116.334,59.351,115.822 M64.442,115.822
		c0.018,0.279,0.142,0.53,0.365,0.764C64.781,116.297,64.656,116.045,64.442,115.822 M62.096,116.204l0.179,0.578l0.187-0.382
		L62.096,116.204z M79.722,116.967v-0.381h-0.178L79.722,116.967z M69.541,116.782c0.036,0.158,0.152,0.288,0.365,0.381
		C69.871,117.033,69.746,116.902,69.541,116.782 M85.552,116.782l0.178,2.067L85,119.043l0.553,2.105l0.544-2.105
		C85.981,118.318,85.794,117.564,85.552,116.782 M83.359,117.703l0.544,0.959C83.85,118.318,83.671,118.002,83.359,117.703
		 M70.637,117.898c0.108,0.177,0.287,0.307,0.544,0.382L70.637,117.898z M67.553,118.849c0.214-0.02,0.33-0.14,0.366-0.382
		L67.553,118.849z M82.263,118.849c0.062,0.298,0.249,0.549,0.543,0.764C82.735,119.342,82.556,119.09,82.263,118.849
		 M59.173,119.808l-0.704,0.186l0.704,1.155l0.366-1.155L59.173,119.808z M81.184,119.808c0.017,0.232,0.142,0.428,0.365,0.567
		l0.187-0.567H81.184z M80.088,120.758c0.053,0.242,0.178,0.428,0.365,0.577C80.409,121.084,80.284,120.887,80.088,120.758
		 M59.717,122.098c0.124,0.269,0.365,0.521,0.731,0.735C60.358,122.508,60.118,122.265,59.717,122.098 M85.366,122.294l-0.731,0.921
		l0.553,0.382l0.543-0.949C85.695,122.479,85.58,122.359,85.366,122.294 M77.012,122.834v-0.382h-0.187L77.012,122.834z
		 M78.26,122.451l-0.731,0.959c0.072,0.289,0.259,0.475,0.553,0.568l0.731-0.381C78.741,123.178,78.554,122.797,78.26,122.451
		 M82.806,122.648l0.188,0.567v-0.567H82.806z M58.469,123.41l0.178,2.291l0.526-0.381l0.366-0.764L58.469,123.41z M65.726,124.938
		v-0.381h-0.178L65.726,124.938z M78.991,124.557c-0.205,0.288-0.329,0.605-0.365,0.949l0.731-0.381L78.991,124.557z
		 M80.819,124.557l-0.366,0.764l0.731-0.196L80.819,124.557z M85.366,125.32h0.365v-0.382h-0.178L85.366,125.32z M64.629,125.506
		c0.125,0.4,0.366,0.717,0.731,0.959L64.629,125.506z M81.736,125.702l-0.552,0.949l0.365,0.382l0.526-0.951
		C82.04,125.952,81.924,125.822,81.736,125.702 M79.357,126.083c0.089,0.234,0.276,0.364,0.553,0.382L79.357,126.083z
		 M59.904,126.27c-0.419,0.187-0.669,0.372-0.731,0.577C59.539,126.753,59.779,126.567,59.904,126.27 M80.275,127.228
		c0.036,0.327,0.151,0.634,0.365,0.922C80.587,127.843,80.462,127.535,80.275,127.228 M82.263,127.386l-0.188,0.764l0.366-0.187
		L82.263,127.386z M84.821,127.386l-0.553,0.764C84.635,128.048,84.821,127.787,84.821,127.386 M81.005,128.914
		c0.054,0.373,0.232,0.689,0.544,0.959C81.487,129.529,81.301,129.212,81.005,128.914 M85.187,128.914L85,129.686h0.553
		C85.534,129.407,85.41,129.155,85.187,128.914 M78.626,129.109c0.053,0.251,0.178,0.446,0.365,0.577L78.626,129.109z
		 M83.172,129.109l-0.366,0.764l0.731-0.187C83.503,129.427,83.386,129.24,83.172,129.109 M71.003,129.491
		c-0.232,0.252-0.348,0.578-0.366,0.959l0.91-0.577C71.449,129.686,71.262,129.566,71.003,129.491 M68.81,130.069v0.381l0.365-0.196
		L68.81,130.069z M67.188,130.254c-0.349,0.289-0.526,0.671-0.544,1.145C66.902,131.074,67.08,130.692,67.188,130.254
		 M83.359,130.832l0.178,0.381l0.553-0.196l-0.365-0.568L83.359,130.832z M61,130.637l-0.918,0.381l0.731,0.764l0.918-1.145H61z
		 M64.442,131.018l-0.178,0.764l0.731-0.382L64.442,131.018z M62.275,131.782l-0.179,0.55h0.366v-0.55H62.275z M76.459,132.899
		c0.161,0.289,0.402,0.485,0.731,0.577L76.459,132.899z M60.635,133.662l-0.187,0.959L61,134.045
		C60.983,133.886,60.858,133.756,60.635,133.662 M74.453,134.045v-0.382h-0.187L74.453,134.045z M79.91,134.426l-0.188,0.959
		l0.553-0.196L79.91,134.426z M84.268,134.426c0.089,0.279,0.267,0.466,0.553,0.577L84.268,134.426z M69.719,134.621l-0.178,0.568
		l0.365-0.187v-0.381H69.719z M71.181,134.621v0.381l0.366-0.196L71.181,134.621z M77.895,135.003l-1.979,0.765l-2.015,0.186
		c-0.544,0-0.846,0.261-0.918,0.764v0.735c-0.481-0.085-0.964-0.27-1.435-0.541c-0.589-0.241-1.195-0.363-1.828-0.381
		c-0.606,0.112-1.266,0.289-1.979,0.54l-0.73,1.723l0.178,1.722c0.543,0.234,1.141,0.364,1.8,0.382l1.649-0.959l1.828-0.381
		l1.801-0.764l4.181-0.577l0.178-1.882C78.572,135.85,78.332,135.404,77.895,135.003 M85,135.768l-1.462,1.685
		c0.178,0.242,0.419,0.372,0.731,0.381l1.462-1.685L85,135.768z M80.819,135.953c-0.607,0.53-0.909,1.155-0.909,1.88
		C80.364,137.312,80.667,136.679,80.819,135.953 M85.919,137.266c-0.696,0.596-1.186,1.425-1.462,2.486
		C85.187,139.184,85.669,138.355,85.919,137.266 M65.913,137.834l-0.553,0.577l0.366,1.146l0.365-1.341v-0.382H65.913z
		 M59.717,138.607l-0.178,1.908l0.178,0.765l0.365-0.382C60.082,140.162,59.966,139.398,59.717,138.607 M80.088,138.793l0.552,0.381
		C80.534,138.997,80.355,138.867,80.088,138.793 M82.075,138.793l-0.526,0.958c0.053,0.178,0.169,0.307,0.348,0.382
		c0.277-0.224,0.517-0.54,0.731-0.959L82.075,138.793z M85.919,139.37c-0.385,0.429-0.687,0.941-0.919,1.527
		C85.4,140.478,85.705,139.966,85.919,139.37 M76.459,139.557l-0.365,0.958l0.731-0.577
		C76.789,139.771,76.673,139.649,76.459,139.557 M73.356,140.134c-0.231,0.252-0.356,0.568-0.374,0.949l0.918-0.568
		C73.811,140.329,73.633,140.199,73.356,140.134 M82.806,140.515c0.054,0.196,0.179,0.392,0.366,0.568L82.806,140.515z
		 M80.275,140.702c0.089,0.326,0.267,0.521,0.544,0.578L80.275,140.702z M71.912,141.661l-0.178,0.54H72.1v-0.54H71.912z
		 M74.632,141.818l-0.178,0.578h0.365l0.178-0.381L74.632,141.818z M83.537,141.818l-0.543,0.959l0.909-0.381L83.537,141.818z
		 M60.082,143.346l-0.731,0.382c0.054,0.343,0.178,0.67,0.366,0.958c0.178-0.261,0.418-0.512,0.731-0.764
		C60.411,143.663,60.296,143.476,60.082,143.346 M77.012,144.491l-0.187,0.578l0.365-0.196v-0.382H77.012z M79.722,144.491
		l-0.909,1.723l1.097,0.186l0.73-1.331L79.722,144.491z M73.9,144.686l-0.178,0.568l0.365-0.186v-0.382H73.9z M78.082,144.873
		c-0.25,0.363-0.428,0.81-0.553,1.341C77.823,145.833,78.01,145.385,78.082,144.873 M75.184,145.45v-0.381h-0.188L75.184,145.45z
		 M72.1,145.255v0.382l0.365-0.187L72.1,145.255z M74.818,145.45l-0.365,0.949l0.365-0.186l0.544,0.186L74.818,145.45z
		 M82.075,145.45c0.054,0.344,0.179,0.662,0.366,0.949l0.365-0.763L82.075,145.45z M64.076,146.018l-1.07,1.313l1.436,0.196
		l0.553-0.196h0.731c-0.018-0.326-0.143-0.633-0.366-0.932C64.923,146.363,64.495,146.242,64.076,146.018 M70.084,146.018
		l-0.365,0.735l0.731-0.54L70.084,146.018z M59.173,146.214l0.178,0.54l0.188-0.54H59.173z M72.804,146.214
		c0.053,0.159,0.178,0.289,0.365,0.381C73.152,146.409,73.027,146.289,72.804,146.214 M68.106,146.754
		c0.017,0.187,0.125,0.316,0.338,0.391C68.426,146.978,68.31,146.847,68.106,146.754 M59.351,147.145
		c0.214,0.344,0.517,0.596,0.918,0.764C60.091,147.591,59.788,147.34,59.351,147.145"/>
	<path fill="#EE7D00" d="M62.133,155.296c0.903-0.116,1.335,0.893,2.199,0.931c1.296,1.243,1.767,2.562,2.906,3.881
		c-0.078,0.621,0.471,1.087,0.275,1.591c0.668,0.543,1.532-0.194,2.356-0.077c1.611-1.009,3.574-0.078,5.381-0.117
		c1.964,0.661,1.964,3.028,2.906,4.387c0.275,0.582,0.354,1.203,0.589,1.785c-0.235,0.97,0.118,2.135-0.667,2.872
		c-0.117,1.32-1.454,2.018-2.434,2.911c-1.336,0.466-2.789,0.659-3.967,1.474c-0.117-0.116-0.275-0.116-0.392-0.272l-1.021,1.281
		l-1.532,16.224l-0.471,0.543l-0.471,5.239c-0.706,0.621-1.766,0.738-2.631,0.738c-0.196,0.621-0.942-0.038-1.138,0.543
		c-0.668-0.077-1.688-0.272-2.239,0.194c-1.178-0.077-2.317-0.155-3.298-0.659h-4.046v0.465l6.677,7.918
		c-0.197,0.427,0,1.009-0.197,1.397c-0.864-1.358-2.081-2.522-3.181-3.881c-0.668,0.194-0.039,0.738,0.078,1.087
		c0.511,0.31,0.589,1.048,1.218,1.048c0.275,0.388-0.079,0.659-0.275,0.931l1.335,1.203c-0.55,0.971-1.296-0.31-1.885,0.273
		c-1.886-1.398-2.867-3.571-4.556-5.123c0.236-0.971-1.218-0.7-1.099-1.593c-0.471-0.737-1.649-1.047-1.61-2.135
		c-1.532-0.699-1.493-3.143-3.574-2.6c-1.179-0.466-2.356-0.932-3.495-1.398c-0.982-0.272-1.532-1.397-2.475-1.203
		c-0.628-0.388,0.275-0.621,0.197-1.125c-0.314-1.514,0.942-2.368,0.746-3.804c-0.158-1.009-1.689-1.863-1.767-3.105
		c-1.218-0.311,0.078-1.591-1.138-1.669c-0.826-0.582-1.218-2.096-2.356-2.058c-0.865-0.854-2.514-0.232-3.692-0.543l-3.298-1.204
		c-1.179-1.824-3.417-3.415-3.457-5.783c-0.431-0.815,0-1.747,0-2.601c0.236-0.815,1.021-1.203,0.943-2.135
		c0.982-0.659,1.728-2.251,3.181-1.513c1.257-0.544,2.828-0.155,3.967,0.388c1.217,0.349,2.316,1.009,3.023,2.058
		c0.904,0,0.314,1.28,1.296,1.086c0.158,1.009,0.746,1.824,1.335,2.64c-0.314,0.699,0.55,1.163,0.393,1.94
		c0.628,1.32,0.197,2.833,0.471,4.191c0.078,1.591,1.963,2.445,2.434,3.999c0.117,0,0.275-0.155,0.275-0.273l0.117-2.871h0.746
		c0.471-2.911,0.511-6.132,3.024-8.035h0.55c-0.628,1.902-1.454,3.687-1.807,5.705c0.471,0.466-0.393,0.854-0.275,1.397
		c-0.156,0.97-1.179,1.631-0.943,2.794c-0.864,0.389-0.275,1.436-0.667,2.018c1.218,2.445,3.377,4.425,5.184,6.443
		c1.021-0.077,0.667,1.048,1.138,1.475c1.335,0.815,1.14,2.756,2.75,3.183c0.628-0.039,1.06,0.388,1.61,0.543
		c1.257,0,2.748,0.504,3.77-0.077c1.021-0.117,1.925,0.62,2.828,0.272c1.374,0.659,2.239-0.777,3.456-0.544
		c0.551-0.465,1.493-0.155,1.807-0.931c-0.117-0.582,0.315-1.125-0.392-1.397c-1.257,0.659-2.945-0.194-4.124,0.349
		c-0.197-0.155-0.078-0.466-0.117-0.738c0.667-0.543,1.571,0.311,2.199-0.349c1.06,0,1.767,0.038,2.631-0.466l1.413-15.487
		l0.471-0.659l0.354-4.346c1.649-0.194,3.377-0.621,5.105-0.855c0.668-0.815,1.807-1.435,2.278-2.328
		c1.335-0.854,0.904-2.601,1.099-3.998c-0.981-1.125-1.06-2.601-2.042-3.726c-0.667-0.505-1.688-0.466-2.356-1.125
		c-1.256-0.505-1.885,0.581-3.142,0.272c-0.353,0.466-1.217-0.116-1.413,0.582c-0.707,0-1.138,1.086-1.964,0.543
		c-1.021-0.35-0.039-1.165-0.47-1.786c-0.432-0.776-0.354-1.901-1.336-2.406c-0.117-0.892-1.021-1.474-1.492-2.251
		c-0.511-0.582-1.571-0.272-2.081-1.009c-2.75-0.35-5.262-0.427-7.069,1.863c0.117,1.009-1.454,0.97-1.021,2.135
		c-0.197,0.543-0.668,0.97-0.471,1.669c-0.314,0.466-0.825,0.738-1.335,0.466c-0.668-0.272-1.336-0.854-1.767-1.281
		c-0.785-0.039-0.943-1.242-1.885-0.931c-1.807-2.135-4.87-1.32-7.384-1.786c-1.492,0.543-3.337,1.359-3.848,3.067
		c-0.59,0.543-0.471,1.513-0.471,2.328c0.942,0.311-0.275,1.243,0.667,1.591c0.079,2.018,2.2,2.717,3.496,3.998
		c0.511,0,0.746,0.777,1.413,0.466c2.081,1.631,4.87,0.738,7.344,1.514l0.826,0.465l-0.276,0.194
		c-2.945-0.388-6.048,0.504-8.482-1.125c-0.943,0.272-1.138-1.204-2.081-0.932c-0.314-0.893-1.374-0.582-1.414-1.591
		c-0.825-0.699-2.16-1.436-1.963-2.794l-0.275-0.388l0.275-3.804c0.393-0.466,0.903-1.047,1.021-1.669
		c0.825-0.272,1.335-1.242,2.199-1.397c0.158-1.397,1.689-0.039,2.356-0.854c1.336,0,2.671,0,3.771,0.659
		c1.335-0.194,2.395,0.621,3.377,1.125c1.099,0.543,2.199,0.97,3.299,1.669c0.47-0.272,0.156-0.853,0.392-1.203
		c0.314-0.505,0.942-0.893,0.825-1.591c1.454-0.931,2.67-2.678,4.438-2.522c0.511-0.466,1.493,0.193,1.885-0.544
		C60.522,154.869,61.662,154.481,62.133,155.296 M40.101,166.085c0.197,0.194,0.629,0.234,0.471,0.66
		c-0.392-0.116-1.335,0.311-1.532-0.389c-0.392-0.504-0.275-1.242-0.825-1.669c0.039-0.543,0.117-1.203,0.943-0.931L40.101,166.085z
		 M76.271,168.414c0.039,1.242-0.864,2.329-1.964,2.872c-0.55,0.039-0.903,0.466-1.492,0.311c-0.236-0.815,0.981-0.777,1.492-1.125
		c0.865-0.699,0.746-1.979,1.689-2.524L76.271,168.414z M33.779,170.743c2.16,0.232,3.535,2.056,4.791,3.648
		c0.629,1.902,1.532,3.842,1.414,5.939c0.667,0.504,0.353,1.669,0.314,2.445c0.864,1.358,2.553,2.135,2.709,3.803
		c-0.864-0.699-1.492-1.591-2.552-1.591c-0.432-0.893-2.396-1.63-1.296-2.678c-0.079-1.009,0.589-2.174-0.197-2.989
		c0.197-0.311,0.078-0.816-0.275-0.932c-0.865,0.893-0.158,2.679-1.689,3.067c-3.062,0.776-5.301-1.009-7.461-2.717
		c-1.218-1.747-3.299-3.61-1.807-5.745c-0.197-1.009,1.099-1.475,1.413-2.174c0.785-0.738,1.807,0.039,2.553-0.738
		C32.522,170.045,33.346,170.122,33.779,170.743 M33.229,171.287c0.117,0.738-0.785,0.194-1.06,0.466
		c-0.629,0.427-1.375,1.009-1.767,1.59c0.314,0.544,0.668,1.243,0.275,1.864c0.275,1.552,1.807,2.562,2.828,3.532
		c-1.571,0.272-2.67-1.048-3.495-2.135c0.039-1.397-1.336-2.717-0.276-4.076C30.362,171.403,32.09,170.743,33.229,171.287
		 M54.907,177.535c-1.649,3.765-1.454,8.267-2.356,12.304h-0.314c-0.118-0.504,0-1.281-0.746-1.397
		c0.156-4.037,1.413-7.608,2.474-11.256C54.436,176.643,55.418,176.488,54.907,177.535 M61.309,181.378
		c0.825-0.854,0.353-2.173,0.745-3.182c0.432-0.078,0.315,0.427,0.471,0.659c-0.943,5.084-1.452,10.363-2.828,15.253h-0.275
		c0.079-0.427,0.471-0.815,0.197-1.281c-0.982-1.047,0.353-2.212,0.471-3.376c-0.158-1.747,1.021-3.105,0.471-4.93
		c-0.785,1.67-0.746,3.649-1.532,5.318c-0.118,0-0.275-0.155-0.275-0.272c0.785-3.998,1.452-8.073,1.963-12.226l0.197-0.155
		C61.348,178.351,60.877,180.097,61.309,181.378 M45.953,185.725h0.078v0.466h-0.078V185.725z M47.916,192.362
		c-0.746,0.311-0.982-1.086-1.688-1.047c-0.078-0.97-1.414-1.436-1.335-2.484C45.914,189.839,47.053,191.12,47.916,192.362
		 M44.814,193.177l2.436,2.989c-0.471,0.427-0.432-0.35-0.826-0.35c-0.785,0.311-1.138-0.62-1.805-0.193
		c-0.471-0.389-0.943-0.738-1.493-0.854c-0.158-0.854-0.275-1.979,0.471-2.601C44.108,192.324,44.853,192.517,44.814,193.177
		 M50.666,195.972l1.021,1.243c-0.785-0.117-1.1-1.204-1.886-1.591c-0.275-0.427-0.785-0.777-0.864-1.32
		C49.684,194.497,50.234,195.389,50.666,195.972 M53.179,198.883c0,0.116,0,0.232,0.118,0.272c-0.197,0.039-0.511-0.039-0.393-0.272
		H53.179z M57.538,204.006v0.659c-0.785-0.349-1.138-1.436-1.807-1.979c-0.706-0.077-0.746-0.699-1.021-1.203
		c-0.392-0.582-1.178-0.971-1.06-1.786C54.946,200.978,56.242,202.57,57.538,204.006"/>
	<path fill="#CBD6E9" d="M20.697,230.33v-8.548c0-0.147-0.114-0.306-0.342-0.479c-0.229-0.172-0.423-0.257-0.58-0.257
		c-0.567,0-0.851,0.45-0.851,1.351v7.91c0,0.77,0.284,1.155,0.851,1.155c0.223,0,0.43-0.131,0.628-0.393
		C20.599,230.805,20.697,230.561,20.697,230.33 M16.417,229.718v-6.634c0-1.129,0.158-2.072,0.473-2.824
		c0.427-1.032,1.112-1.548,2.058-1.548c0.553,0,1.135,0.343,1.75,1.032v-0.885h2.508v13.709c0,1.507-0.316,2.62-0.946,3.342
		c-0.631,0.72-1.664,1.081-3.099,1.081c-0.977,0-1.891-0.279-2.743-0.835l0.827-1.817l0.073,0.048
		c0.708,0.378,1.316,0.566,1.821,0.566c1.041,0,1.56-0.475,1.56-1.424v-1.205c-0.567,0.902-1.213,1.351-1.939,1.351
		C17.198,233.672,16.417,232.353,16.417,229.718 M26.671,218.857v1.868l0.096-0.294c0.032-0.148,0.063-0.238,0.095-0.271
		c0.252-0.967,0.552-1.45,0.899-1.45c0.267,0,0.456,0.115,0.567,0.343v2.605c-0.19-0.115-0.387-0.173-0.591-0.173
		c-0.71,0-1.066,0.794-1.066,2.385v10.931h-2.554v-15.944H26.671z M31.77,221.978v3.39h1.726v-3.342
		c0-0.703-0.299-1.056-0.898-1.056c-0.252,0-0.453,0.103-0.603,0.307C31.845,221.483,31.77,221.717,31.77,221.978 M36.005,222.248
		v5.283H31.77v4.151c0,0.606,0.291,0.91,0.876,0.91c0.567,0,0.851-0.41,0.851-1.23v-1.548h2.508v1.867
		c0,0.951-0.316,1.72-0.947,2.31c-0.63,0.59-1.411,0.884-2.341,0.884c-1.089,0-1.936-0.319-2.543-0.958
		c-0.607-0.639-0.911-1.524-0.911-2.653v-8.894c0-1.112,0.307-2.004,0.922-2.678c0.616-0.67,1.46-1.006,2.532-1.006
		c0.993,0,1.79,0.33,2.389,0.995C35.704,220.345,36.005,221.201,36.005,222.248 M39.66,221.978v3.39h1.726v-3.342
		c0-0.703-0.299-1.056-0.899-1.056c-0.252,0-0.453,0.103-0.603,0.307C39.734,221.483,39.66,221.717,39.66,221.978 M43.895,222.248
		v5.283H39.66v4.151c0,0.606,0.291,0.91,0.875,0.91c0.567,0,0.852-0.41,0.852-1.23v-1.548h2.508v1.867
		c0,0.951-0.315,1.72-0.947,2.31c-0.63,0.59-1.411,0.884-2.342,0.884c-1.087,0-1.935-0.319-2.542-0.958
		c-0.608-0.639-0.911-1.524-0.911-2.653v-8.894c0-1.112,0.307-2.004,0.922-2.678c0.615-0.67,1.459-1.006,2.531-1.006
		c0.994,0,1.791,0.33,2.39,0.995C43.594,220.345,43.895,221.201,43.895,222.248 M44.9,234.802v-20.193h2.508v11.325l2.199-7.076
		h2.294l-2.265,6.803l2.29,9.142h-2.342l-2.176-8.501v8.501H44.9z M56.221,231.265v-8.918c0-0.31-0.071-0.589-0.212-0.834
		c-0.174-0.312-0.394-0.467-0.663-0.467c-0.583,0-0.876,0.408-0.876,1.229v8.918c0,0.883,0.292,1.325,0.876,1.325
		C55.929,232.517,56.221,232.1,56.221,231.265 M58.728,222.863v7.788c0,1.211-0.267,2.194-0.804,2.947
		c-0.6,0.853-1.458,1.278-2.578,1.278c-1.136,0-2.003-0.442-2.602-1.326c-0.521-0.769-0.781-1.777-0.781-3.022v-8.032
		c0-1.065,0.303-1.966,0.909-2.703c0.607-0.738,1.415-1.105,2.426-1.105c1.12,0,1.987,0.417,2.602,1.251
		C58.453,220.692,58.728,221.668,58.728,222.863 M64.111,231.265v-8.918c0-0.31-0.071-0.589-0.212-0.834
		c-0.175-0.312-0.395-0.467-0.664-0.467c-0.583,0-0.875,0.408-0.875,1.229v8.918c0,0.883,0.291,1.325,0.875,1.325
		C63.82,232.517,64.111,232.1,64.111,231.265 M66.619,222.863v7.788c0,1.211-0.268,2.194-0.805,2.947
		c-0.6,0.853-1.459,1.278-2.579,1.278c-1.136,0-2.002-0.442-2.602-1.326c-0.521-0.769-0.781-1.777-0.781-3.022v-8.032
		c0-1.065,0.304-1.966,0.91-2.703c0.607-0.738,1.416-1.105,2.426-1.105c1.119,0,1.987,0.417,2.602,1.251
		C66.342,220.692,66.619,221.668,66.619,222.863 M67.624,234.802v-20.193h2.507v11.325l2.2-7.076h2.294l-2.266,6.803l2.291,9.142
		h-2.342l-2.177-8.501v8.501H67.624z M77.193,217.875c-0.393,0-0.726-0.134-0.994-0.405c-0.268-0.269-0.402-0.609-0.402-1.019
		c0-0.41,0.134-0.753,0.402-1.032c0.268-0.278,0.601-0.418,0.994-0.418s0.721,0.14,0.982,0.418c0.26,0.279,0.39,0.622,0.39,1.032
		c0,0.393-0.135,0.729-0.402,1.008C77.895,217.737,77.571,217.875,77.193,217.875 M75.94,218.857h2.507v15.944H75.94V218.857z
		 M82.362,218.857v0.763c0.441-0.605,0.985-0.909,1.632-0.909c0.916,0,1.602,0.411,2.059,1.228c0.379,0.672,0.568,1.524,0.568,2.556
		v12.307h-2.508v-12.554c0-0.278-0.086-0.548-0.26-0.809c-0.173-0.263-0.394-0.393-0.663-0.393c-0.204,0-0.393,0.065-0.568,0.197
		c-0.173,0.13-0.26,0.294-0.26,0.491v13.069h-2.554v-15.944H82.362z M92.002,230.33v-8.548c0-0.147-0.114-0.306-0.343-0.479
		c-0.228-0.172-0.422-0.257-0.58-0.257c-0.567,0-0.85,0.45-0.85,1.351v7.91c0,0.77,0.282,1.155,0.85,1.155
		c0.223,0,0.43-0.131,0.628-0.393C91.905,230.805,92.002,230.561,92.002,230.33 M87.721,229.718v-6.634
		c0-1.129,0.159-2.072,0.474-2.824c0.426-1.032,1.111-1.548,2.058-1.548c0.552,0,1.135,0.343,1.75,1.032v-0.885h2.507v13.709
		c0,1.507-0.315,2.62-0.945,3.342c-0.632,0.72-1.664,1.081-3.1,1.081c-0.977,0-1.891-0.279-2.743-0.835l0.828-1.817l0.072,0.048
		c0.709,0.378,1.316,0.566,1.821,0.566c1.042,0,1.561-0.475,1.561-1.424v-1.205c-0.567,0.902-1.213,1.351-1.939,1.351
		C88.502,233.672,87.721,232.353,87.721,229.718"/>
</g>
</svg>
